name Walk3.mot
datacolumns 19
datarows 20
range 1.68000000 1.77500000
endheader

                time	   L_ground_force_vx	   L_ground_force_vy	   L_ground_force_vz	   L_ground_force_px	   L_ground_force_py	   L_ground_force_pz	   R_ground_force_vx	   R_ground_force_vy	   R_ground_force_vz	   R_ground_force_px	   R_ground_force_py	   R_ground_force_pz	   L_ground_torque_x	   L_ground_torque_y	   L_ground_torque_z	   R_ground_torque_x	   R_ground_torque_y	   R_ground_torque_z	
          1.68000000	         16.78685627	        525.63164942	         34.03467431	         -0.33425106	          0.00000000	         -0.06030949	         -0.01223924	          0.17010940	          0.00980686	          0.00008500	          0.00000000	          0.00007033	          0.00000000	          0.53025615	          0.00000000	          0.00000000	          0.00011754	          0.00000000	
          1.68500000	         18.15004197	        532.71031342	         34.74711329	         -0.33283562	          0.00000000	         -0.06067765	         -0.01770225	          0.22797374	          0.01134081	          0.00010778	          0.00000000	          0.00008818	          0.00000000	          0.50826919	          0.00000000	          0.00000000	          0.00021675	          0.00000000	
          1.69000000	         19.58308366	        540.31522978	         35.49328621	         -0.33146987	          0.00000000	         -0.06101030	         -0.02403797	          0.29009064	          0.01233418	          0.00013002	          0.00000000	          0.00010514	          0.00000000	          0.47655783	          0.00000000	          0.00000000	          0.00034473	          0.00000000	
          1.69500000	         21.09358788	        548.41763097	         36.27044955	         -0.33015403	          0.00000000	         -0.06130998	         -0.03095321	          0.35117816	          0.01236208	          0.00014867	          0.00000000	          0.00011862	          0.00000000	          0.43600261	          0.00000000	          0.00000000	          0.00050179	          0.00000000	
          1.70000000	         22.69177165	        556.98624180	         37.07603525	         -0.32888737	          0.00000000	         -0.06158002	         -0.03791930	          0.40312667	          0.01088098	          0.00015940	          0.00000000	          0.00012502	          0.00000000	          0.38786248	          0.00000000	          0.00000000	          0.00068481	          0.00000000	
          1.70500000	         24.39079446	        565.98522023	         37.90798314	         -0.32766842	          0.00000000	         -0.06182394	         -0.04410556	          0.43441728	          0.00722946	          0.00015649	          0.00000000	          0.00011957	          0.00000000	          0.33379981	          0.00000000	          0.00000000	          0.00088576	          0.00000000	
          1.71000000	         26.20466318	        575.37157533	         38.76548921	         -0.32649596	          0.00000000	         -0.06204466	         -0.04831283	          0.42963538	          0.00064376	          0.00013265	          0.00000000	          0.00009633	          0.00000000	          0.27549458	          0.00000000	          0.00000000	          0.00108987	          0.00000000	
          1.71500000	         28.14515166	        585.09208940	         39.64882122	         -0.32536908	          0.00000000	         -0.06224458	         -0.04891523	          0.36919247	         -0.00970525	          0.00007911	          0.00000000	          0.00004822	          0.00000000	          0.21470941	          0.00000000	          0.00000000	          0.00127375	          0.00000000	
          1.72000000	         30.22062448	        595.07762393	         40.55833106	         -0.32428653	          0.00000000	         -0.06242673	         -0.04382198	          0.22940722	         -0.02464635	         -0.00001414	          0.00000000	         -0.00003276	          0.00000000	          0.15316657	          0.00000000	          0.00000000	          0.00140339	          0.00000000	
          1.72500000	         32.43611991	        605.24213884	         41.49299060	         -0.32324806	          0.00000000	         -0.06259324	         -0.03047520	         -0.01686341	         -0.04490561	         -0.00015780	          0.00000000	         -0.00015500	          0.00000000	          0.09222083	          0.00000000	          0.00000000	          0.00143248	          0.00000000	
          1.73000000	         34.79425993	        615.48573661	         42.44899541	         -0.32225436	          0.00000000	         -0.06274528	         -0.00590405	         -0.39881310	         -0.07095936	         -0.00036236	          0.00000000	         -0.00032649	          0.00000000	          0.03278970	          0.00000000	          0.00000000	          0.00130118	          0.00000000	
          1.73500000	         37.29743254	        625.69625979	         43.41940015	         -0.32130555	          0.00000000	         -0.06288339	          0.03313985	         -0.94523284	         -0.10283578	         -0.00063665	          0.00000000	         -0.00055365	          0.00000000	         -0.02464380	          0.00000000	          0.00000000	          0.00093595	          0.00000000	
          1.74000000	         39.94962502	        635.74873242	         44.39454080	         -0.32040129	          0.00000000	         -0.06300771	          0.08993703	         -1.68073495	         -0.13986067	         -0.00098587	          0.00000000	         -0.00083960	          0.00000000	         -0.08004686	          0.00000000	          0.00000000	          0.00025100	          0.00000000	
          1.74500000	         42.75607064	        645.50815320	         45.36224932	         -0.31954031	          0.00000000	         -0.06311903	          0.16741364	         -2.62038020	         -0.18034780	         -0.00140885	          0.00000000	         -0.00118196	          0.00000000	         -0.13341575	          0.00000000	          0.00000000	         -0.00084805	          0.00000000	
          1.75000000	         45.72107085	        654.83247427	         46.30810792	         -0.31871968	          0.00000000	         -0.06321783	          0.26758229	         -3.76247748	         -0.22124065	         -0.00189468	          0.00000000	         -0.00157006	          0.00000000	         -0.18444832	          0.00000000	          0.00000000	         -0.00245731	          0.00000000	
          1.75500000	         48.84636822	        663.57636083	         47.21641049	         -0.31793569	          0.00000000	         -0.06330361	          0.39078284	         -5.07942168	         -0.25772295	         -0.00241861	          0.00000000	         -0.00198162	          0.00000000	         -0.23259684	          0.00000000	          0.00000000	         -0.00466369	          0.00000000	
          1.76000000	         52.12924836	        671.59679681	         48.07227328	         -0.31718465	          0.00000000	         -0.06337622	          0.53470478	         -6.50660242	         -0.28282824	         -0.00293733	          0.00000000	         -0.00237900	          0.00000000	         -0.27720368	          0.00000000	          0.00000000	         -0.00752912	          0.00000000	
          1.76500000	         55.56087953	        678.75753696	         48.86355835	         -0.31646173	          0.00000000	         -0.06343490	          0.69318963	         -7.92967233	         -0.28709624	         -0.00338396	          0.00000000	         -0.00270528	          0.00000000	         -0.31746622	          0.00000000	          0.00000000	         -0.01106886	          0.00000000	
          1.77000000	         59.12626831	        684.93344754	         49.58156229	         -0.31576122	          0.00000000	         -0.06347858	          0.85483793	         -9.17082740	         -0.25834465	         -0.00366309	          0.00000000	         -0.00288043	          0.00000000	         -0.35250617	          0.00000000	          0.00000000	         -0.01522356	          0.00000000	
          1.77500000	         62.80720818	        690.00980056	         50.22020674	         -0.31507747	          0.00000000	         -0.06350658	          1.00148350	         -9.97523890	         -0.18164886	         -0.00364659	          0.00000000	         -0.00279832	          0.00000000	         -0.38138044	          0.00000000	          0.00000000	         -0.01982481	          0.00000000	
